<?xml version="1.0" encoding="utf-8"?>
<!-- Generator: Adobe Illustrator 25.3.1, SVG Export Plug-In . SVG Version: 6.00 Build 0)  -->
<svg version="1.1" id="Warstwa_1" xmlns="http://www.w3.org/2000/svg" xmlns:xlink="http://www.w3.org/1999/xlink" x="0px" y="0px"
	 viewBox="0 0 44 43" style="enable-background:new 0 0 44 43;" xml:space="preserve">
<style type="text/css">
	.st0{enable-background:new    ;}
	.st1{fill:#FFFFFF;stroke:#FFFFFF;stroke-miterlimit:10;}
</style>
<g class="st0">
	<path class="st1" d="M32.6,39.8c-3.2,1.9-6.8,2.8-10.6,2.8c-3.8,0-7.3-0.9-10.6-2.8c-3.2-1.9-5.8-4.4-7.7-7.7
		c-1.9-3.2-2.8-6.8-2.8-10.6c0-3.8,0.9-7.3,2.8-10.6c1.9-3.2,4.4-5.8,7.7-7.7c3.2-1.9,6.8-2.8,10.6-2.8c3.8,0,7.3,0.9,10.6,2.8
		c3.2,1.9,5.8,4.4,7.7,7.7c1.9,3.2,2.8,6.8,2.8,10.6c0,3.8-0.9,7.3-2.8,10.6C38.4,35.4,35.8,37.9,32.6,39.8z M8.9,34.6
		c1.7,1.6,3.6,3,5.9,3.9c2.3,1,4.7,1.5,7.2,1.5c2.5,0,4.9-0.5,7.2-1.5c2.3-1,4.2-2.3,5.9-3.9c1.6-1.6,3-3.6,3.9-5.9
		c1-2.3,1.5-4.7,1.5-7.2c0-2.5-0.5-4.9-1.5-7.2c-1-2.3-2.3-4.2-3.9-5.9c-1.6-1.6-3.6-3-5.9-3.9c-2.3-1-4.7-1.5-7.2-1.5
		c-2.5,0-4.9,0.5-7.2,1.5c-2.3,1-4.2,2.3-5.9,3.9c-1.7,1.6-3,3.6-3.9,5.9c-1,2.3-1.5,4.7-1.5,7.2c0,2.5,0.5,4.9,1.5,7.2
		C6,31,7.3,33,8.9,34.6z M22.9,31.7c-0.2,0.2-0.6,0.4-0.9,0.4c-0.2,0-0.4-0.1-0.6-0.2c-0.2-0.1-0.4-0.3-0.5-0.5
		c-0.1-0.2-0.2-0.4-0.2-0.7V15.9l-4.8,4.9c-0.1,0.1-0.3,0.2-0.5,0.3s-0.3,0.1-0.5,0.1c-0.2,0-0.3,0-0.5-0.1s-0.3-0.2-0.5-0.3
		c-0.2-0.3-0.4-0.6-0.4-0.9c0-0.4,0.1-0.7,0.4-0.9l8-7.8l8,7.8c0.3,0.3,0.4,0.6,0.4,0.9c0,0.4-0.1,0.7-0.4,0.9
		c-0.3,0.3-0.6,0.4-0.9,0.4s-0.7-0.1-0.9-0.4L23.3,16v14.8C23.3,31.2,23.2,31.5,22.9,31.7z"/>
</g>
</svg>
