<svg xmlns="http://www.w3.org/2000/svg" width="54.737" height="66.26" viewBox="0 0 54.737 66.26">
  <g id="Group_32" data-name="Group 32" transform="translate(-515.107 -637.118)">
    <g id="Group_31" data-name="Group 31">
      <path id="Path_25" data-name="Path 25" d="M551.49,664.867a9.261,9.261,0,1,1-9.246-9.776,8.8,8.8,0,0,1,1.24.1l5.294-5.413a15.241,15.241,0,0,0-6.533-1.481c-8.763,0-15.892,7.433-15.892,16.572s7.129,16.572,15.892,16.572,15.892-7.435,15.892-16.572a17.088,17.088,0,0,0-1.288-6.524l-5.406,5.527C551.474,664.2,551.49,664.531,551.49,664.867Zm7.364,21.895a27.92,27.92,0,0,0,10.529-21.9,28.213,28.213,0,0,0-1.377-8.672L566.53,657.7a5.63,5.63,0,0,1-4.051,1.714c-.163,0-.322-.031-.484-.046a21.324,21.324,0,0,1,.741,5.495,20.5,20.5,0,1,1-20.493-20.952,20,20,0,0,1,6.176.977,5.909,5.909,0,0,1,1.661-4.008l1.861-1.9a26.436,26.436,0,0,0-9.7-1.864c-14.963,0-27.137,12.448-27.137,27.749a27.913,27.913,0,0,0,11.823,22.889l-4.466,12.178a2.565,2.565,0,0,0,1.459,3.281,2.442,2.442,0,0,0,.876.163,2.494,2.494,0,0,0,2.333-1.653l4.205-11.466a26.424,26.424,0,0,0,9.246,2.273v8.3a2.493,2.493,0,1,0,4.984,0v-8.442a26.484,26.484,0,0,0,8.99-2.824l4.459,12.161a2.5,2.5,0,0,0,2.334,1.653,2.44,2.44,0,0,0,.874-.163,2.565,2.565,0,0,0,1.459-3.281Z" fill="#2476bb"/>
      <path id="Path_26" data-name="Path 26" d="M568.835,646.139l-4.724-1.859a1.588,1.588,0,0,1-.9-.923l-1.818-4.832a1.569,1.569,0,0,0-1.472-1.031,1.536,1.536,0,0,0-1.108.471l-5.79,5.921a1.636,1.636,0,0,0-.356,1.714l1.524,4.05-9.944,10.168a5.2,5.2,0,0,0-2-.4,5.453,5.453,0,1,0,5.328,5.452,5.549,5.549,0,0,0-.394-2.042l9.575-9.793,5.162,2.03a1.547,1.547,0,0,0,1.676-.364l5.79-5.921A1.625,1.625,0,0,0,568.835,646.139Z" fill="#2476bb"/>
    </g>
  </g>
</svg>
