<svg xmlns="http://www.w3.org/2000/svg" width="42.111" height="42.111" viewBox="0 0 42.111 42.111">
  <path id="Path_35" data-name="Path 35" d="M18.238-7.855a20.684,20.684,0,0,0,2.817-10.569,20.684,20.684,0,0,0-2.817-10.569,20.793,20.793,0,0,0-7.67-7.67A20.684,20.684,0,0,0,0-39.479a20.684,20.684,0,0,0-10.569,2.817,20.793,20.793,0,0,0-7.67,7.67,20.683,20.683,0,0,0-2.817,10.569A20.683,20.683,0,0,0-18.238-7.855a20.793,20.793,0,0,0,7.67,7.67A20.683,20.683,0,0,0,0,2.632,20.684,20.684,0,0,0,10.569-.185,20.793,20.793,0,0,0,18.238-7.855ZM-17-11.268a18.01,18.01,0,0,1-1.46-7.156A18.01,18.01,0,0,1-17-25.579a18.335,18.335,0,0,1,3.948-5.881,18.756,18.756,0,0,1,5.9-3.927A18.01,18.01,0,0,1,0-36.847a18.01,18.01,0,0,1,7.156,1.46,18.508,18.508,0,0,1,5.881,3.927,18.508,18.508,0,0,1,3.927,5.881,18.01,18.01,0,0,1,1.46,7.156,18.01,18.01,0,0,1-1.46,7.156,18.508,18.508,0,0,1-3.927,5.881A18.508,18.508,0,0,1,7.156-1.46,18.01,18.01,0,0,1,0,0,18.01,18.01,0,0,1-7.156-1.46a18.756,18.756,0,0,1-5.9-3.927A18.335,18.335,0,0,1-17-11.268ZM1.316-9.212v-14.8l4.77,4.77a1.255,1.255,0,0,0,.925.37,1.288,1.288,0,0,0,.946-.391,1.265,1.265,0,0,0,.391-.925,1.3,1.3,0,0,0-.411-.946L-.041-28.91l-7.978,7.772a1.372,1.372,0,0,0-.37.946,1.372,1.372,0,0,0,.37.946,1.874,1.874,0,0,0,.452.267,1.274,1.274,0,0,0,.493.1,1.274,1.274,0,0,0,.493-.1,1.874,1.874,0,0,0,.452-.267L-1.316-24.1V-9.212a1.294,1.294,0,0,0,.185.679,1.258,1.258,0,0,0,.493.473A1.338,1.338,0,0,0,0-7.9a1.281,1.281,0,0,0,.946-.37A1.281,1.281,0,0,0,1.316-9.212Z" transform="translate(21.055 39.479)" fill="#fff"/>
</svg>
