<svg xmlns="http://www.w3.org/2000/svg" width="67.999" height="62" viewBox="0 0 67.999 62">
  <g id="Vector_Smart_Object" data-name="Vector Smart Object" transform="translate(-529.595 -183.335)">
    <g id="Group_22" data-name="Group 22">
      <g id="Group_21" data-name="Group 21">
        <path id="Path_19" data-name="Path 19" d="M597.483,242.536l-3.105-9.446a2.118,2.118,0,0,1,.136-1.624,24.943,24.943,0,0,0,2.289-15.749A24.566,24.566,0,0,0,580.7,196.862a29.747,29.747,0,0,1,1.709,16.69,28.685,28.685,0,0,1-22.877,22.961,29.409,29.409,0,0,1-4.5.443,24.051,24.051,0,0,0,28.855,5.239,2.035,2.035,0,0,1,1.591-.133l9.356,3.16A2.108,2.108,0,0,0,597.483,242.536Z" fill="#2476bb"/>
        <path id="Path_20" data-name="Path 20" d="M549.633,183.775a24.455,24.455,0,0,0-19.247,19.694,24.942,24.942,0,0,0,2.289,15.749,2.118,2.118,0,0,1,.136,1.624l-3.105,9.446a2.108,2.108,0,0,0,2.65,2.686l9.356-3.16a2.035,2.035,0,0,1,1.592.133,24.063,24.063,0,0,0,15.463,2.261,24.432,24.432,0,0,0,19.4-19.462C581.365,195.44,566.7,180.561,549.633,183.775Zm6.187,31.867H543.737a2.187,2.187,0,0,1,0-4.374H555.82a2.187,2.187,0,0,1,0,4.374Zm8.631-8.748H543.737a2.187,2.187,0,0,1,0-4.374h20.714a2.187,2.187,0,0,1,0,4.374Z" fill="#2476bb"/>
      </g>
    </g>
  </g>
</svg>
