<svg xmlns="http://www.w3.org/2000/svg" width="62" height="58" viewBox="0 0 62 58">
  <g id="Group_19" data-name="Group 19" transform="translate(-301.26 -183.362)">
    <path id="Path_18" data-name="Path 18" d="M358.36,183.658l-55,23.767a3.454,3.454,0,0,0-.206,6.26l11.155,5.707,33.228-22.913a.463.463,0,0,1,.729.366l-27.835,26.338a3.457,3.457,0,0,0-1.082,2.508v12.2a3.5,3.5,0,0,0,6.483,1.808l6.752-10.954,14.289,7.31a3.506,3.506,0,0,0,5-2.264l11.281-46.136A3.487,3.487,0,0,0,358.36,183.658Z" fill="#2476bb"/>
  </g>
</svg>
