<svg xmlns="http://www.w3.org/2000/svg" width="61" height="64.999" viewBox="0 0 61 64.999">
  <g id="Group_30" data-name="Group 30" transform="translate(-534.381 -179.009)">
    <g id="Group_29" data-name="Group 29">
      <g id="Group_28" data-name="Group 28">
        <g id="Group_27" data-name="Group 27">
          <path id="Path_23" data-name="Path 23" d="M594.447,218.622h0a4.34,4.34,0,0,0-6.071-.722l-12.246,9.576a3.46,3.46,0,0,1-2.132.736l-8.775.009a2.158,2.158,0,1,1,0-4.316l7.353-.007a4.317,4.317,0,1,0-.009-8.633l-16.836.016-1.137,0a10.4,10.4,0,0,0-6.407,2.214l-6.009,4.707a.863.863,0,0,0-.144,1.214l11.67,14.728a.858.858,0,0,0,.67.328l14.116.119,3.9.033a10.4,10.4,0,0,0,6.526-2.232l14.82-11.694A4.318,4.318,0,0,0,594.447,218.622Z" fill="#2476bb"/>
          <path id="Path_24" data-name="Path 24" d="M538.638,226.092a.864.864,0,0,0-1.215-.142l-2.715,2.141a.861.861,0,0,0-.142,1.212l11.391,14.377a.865.865,0,0,0,1.215.142l2.715-2.141a.863.863,0,0,0,.142-1.212Zm30.8-30.8a8.14,8.14,0,1,0-8.157-8.141A8.149,8.149,0,0,0,569.436,195.289Zm7.536,5.093H561.9a6.416,6.416,0,0,0-6.17,6.635v1.917a1.95,1.95,0,0,0,1.875,2.017h23.664a1.951,1.951,0,0,0,1.875-2.017v-1.917A6.416,6.416,0,0,0,576.972,200.383Z" fill="#2476bb"/>
        </g>
      </g>
    </g>
  </g>
</svg>
