<svg xmlns="http://www.w3.org/2000/svg" width="79" height="52.999" viewBox="0 0 79 52.999">
  <g id="Group_25" data-name="Group 25" transform="translate(-647.141 -183.69)">
    <g id="Group_24" data-name="Group 24">
      <g id="Group_23" data-name="Group 23">
        <path id="Path_21" data-name="Path 21" d="M725.9,199.152l-14.52-15.192a.876.876,0,0,0-1.229-.036l-6.1,5.666a.847.847,0,0,0-.037,1.211l14.518,15.194a.88.88,0,0,0,1.231.036l6.1-5.666A.849.849,0,0,0,725.9,199.152Zm-5.3,1.726a1.917,1.917,0,0,1-2.682-.079,1.85,1.85,0,0,1,.08-2.644,1.915,1.915,0,0,1,2.682.079A1.852,1.852,0,0,1,720.6,200.878Zm-58.506-14.84a.878.878,0,0,0-1.22.151l-13.55,17.193a.851.851,0,0,0,.153,1.2l6.645,5.089a.878.878,0,0,0,1.222-.151l13.55-17.191a.851.851,0,0,0-.153-1.2Zm-6.376,17.913a1.922,1.922,0,0,1-2.672.329,1.857,1.857,0,0,1-.336-2.634,1.924,1.924,0,0,1,2.672-.331A1.862,1.862,0,0,1,655.719,203.951Z" fill="#2476bb"/>
        <path id="Path_22" data-name="Path 22" d="M706.131,220.61l-14.89-11.46-2.715,2.449c-3.836,3.4-7.289,4.308-9.9,4.308a11,11,0,0,1-1.831-.153,10.193,10.193,0,0,1-7.108-4.813,5,5,0,0,1,.954-6.493l10.7-9.586A7.011,7.011,0,0,0,671.6,196.1l-10.443,13.3a5.092,5.092,0,0,0-1.067,3.8l.674,5.4a5.124,5.124,0,0,0,1.967,3.43L681.04,236.1a2.842,2.842,0,0,0,3.8-.312l.823-.887a2.743,2.743,0,0,0-.266-3.993l3.072,2.539a2.839,2.839,0,0,0,3.754-.129l.947-.9a2.744,2.744,0,0,0-.151-4.121l2.273,1.867a2.835,2.835,0,0,0,3.765-.149l.834-.806a2.74,2.74,0,0,0-.124-4.068l1.5,1.278a2.838,2.838,0,0,0,3.995-.321l1.3-1.534A2.742,2.742,0,0,0,706.131,220.61Zm7.277-13.72-12.574-12.644a3.52,3.52,0,0,0-2.033-1l-6.436-.83a3.52,3.52,0,0,0-2.788.858l-1.514,1.359-14.485,12.984a.791.791,0,0,0-.195,1.059l.091.148a5.817,5.817,0,0,0,4.066,2.7c2.5.42,5.289-.649,8.064-3.106l5.415-4.885,17.038,13.114,5.309-4.909A3.4,3.4,0,0,0,713.409,206.89Z" fill="#2476bb"/>
      </g>
    </g>
  </g>
</svg>
