<svg xmlns="http://www.w3.org/2000/svg" xmlns:xlink="http://www.w3.org/1999/xlink" width="94.942" height="18.761" viewBox="0 0 94.942 18.761">
  <defs>
    <clipPath id="clip-path">
      <rect id="Rectangle_1" data-name="Rectangle 1" width="94.942" height="18.761" transform="translate(0 0)" fill="none"/>
    </clipPath>
  </defs>
  <g id="Vector_Smart_Object" data-name="Vector Smart Object" opacity="0.4">
    <g id="Group_2" data-name="Group 2">
      <g id="Group_1" data-name="Group 1" clip-path="url(#clip-path)">
        <path id="Path_1" data-name="Path 1" d="M0,12.214V7.945H.385L2.013,9.961a3.575,3.575,0,0,0,2.665,1.513c1.1,0,1.54-.564,1.54-1.246,0-1.245-1.54-1.63-3.02-2.49C.948,6.433.03,5.4.03,3.587.03,1.334,1.984,0,4.944,0A9.629,9.629,0,0,1,8.438.622v4H8.054L6.336,2.579a2.742,2.742,0,0,0-1.865-.86c-.918,0-1.392.534-1.392,1.156,0,1.1,1.244,1.69,2.843,2.491C8.2,6.522,9.267,7.589,9.267,9.338c0,2.4-1.776,3.854-4.826,3.854A11.633,11.633,0,0,1,0,12.214" fill="#fff"/>
      </g>
    </g>
    <path id="Path_2" data-name="Path 2" d="M10.8.389V.806l2.5,1.668v13.98l-.139.139H11.079v1.862h8.633V16.593H16.936l-.166-.167V10.478h3.58l.139.139v1.834h1.776V6.531H20.489V8.394l-.139.139H16.77v-6.2H22.4L24.542,6h.527V.389Z" fill="#fff"/>
    <path id="Path_3" data-name="Path 3" d="M24.5,8.366V8.7l1.776,1.112v6.726l-.139.139H24.884v1.779h5.968V16.676H29.6l-.139-.139V6.337L29.1,6.17Z" fill="#fff"/>
    <g id="Group_4" data-name="Group 4">
      <g id="Group_3" data-name="Group 3" clip-path="url(#clip-path)">
        <path id="Path_4" data-name="Path 4" d="M45.694,16.7v1.751H39.726V16.677h1.249l.139-.139V11.59c0-2.224-.638-2.836-2.221-2.836a8.541,8.541,0,0,0-2.136.334v7.449l.139.139h1.249v1.779H32.175V16.677h1.249l.139-.139V9.783L31.787,8.7V8.338L35.951,6.2l.361.195.333,1.64a7.518,7.518,0,0,1,4.3-1.668c1.97,0,3.358.973,3.358,3.252v6.921l.139.166Z" fill="#fff"/>
        <path id="Path_5" data-name="Path 5" d="M53.152,16.51V13.174c-2.165.195-3.053.807-3.081,2.057a1.393,1.393,0,0,0,1.583,1.529,6.014,6.014,0,0,0,1.5-.25m4.58.167v1.779h-4.58v-.973a6.281,6.281,0,0,1-3.442,1.278,2.539,2.539,0,0,1-2.747-2.752c0-2.084,1.388-3.7,6.19-4.2v-.5c0-1.89-.638-2.863-2.248-2.863a5.457,5.457,0,0,0-2.915,1.028l-.527-1.056a6.5,6.5,0,0,1,4.8-2.056c2.915,0,4.081,1.667,4.081,4.753v5.42l.139.139Z" fill="#fff"/>
        <path id="Path_6" data-name="Path 6" d="M72.713,16.7v1.751H66.745V16.677h1.249l.139-.139V11.59c0-2.224-.638-2.836-2.221-2.836a8.541,8.541,0,0,0-2.136.334v7.449l.139.139h1.249v1.779H59.2V16.677h1.249l.139-.139V9.783L58.806,8.7V8.338L62.97,6.2l.361.195.333,1.64a7.518,7.518,0,0,1,4.3-1.668c1.97,0,3.358.973,3.358,3.252v6.921l.139.166Z" fill="#fff"/>
        <path id="Path_7" data-name="Path 7" d="M73.359,12.841a6.109,6.109,0,0,1,6.3-6.476,9.467,9.467,0,0,1,3.247.611v4.475h-.361L80.437,8.616a2.267,2.267,0,0,0-1.527-.639c-1.416,0-2.165,1.334-2.165,3.808,0,3.474,1.8,5.03,3.719,5.03a4.536,4.536,0,0,0,2.415-.667l.528.973a6.419,6.419,0,0,1-4.358,1.612c-3.47,0-5.691-2.335-5.691-5.892" fill="#fff"/>
        <path id="Path_8" data-name="Path 8" d="M87.92,11.089h3.941c-.056-2.335-.749-3.113-1.887-3.113-1.222,0-1.944,1.084-2.054,3.113M94.3,16.148l.527.973a7.14,7.14,0,0,1-4.469,1.612,5.674,5.674,0,0,1-5.857-5.976c0-3.585,2.443-6.392,5.857-6.392a4.352,4.352,0,0,1,4.58,4.669,7.57,7.57,0,0,1-.139,1.5H87.92c.194,2.668,1.471,4.308,3.747,4.308a5.933,5.933,0,0,0,2.637-.695" fill="#fff"/>
      </g>
    </g>
    <rect id="Rectangle_3" data-name="Rectangle 3" width="8.683" height="3.64" transform="translate(0.144 14.812)" fill="#fff"/>
  </g>
</svg>
