<svg xmlns="http://www.w3.org/2000/svg" xmlns:xlink="http://www.w3.org/1999/xlink" width="94.942" height="18.761" viewBox="0 0 94.942 18.761">
  <defs>
    <clipPath id="clip-path">
      <rect id="Rectangle_2" data-name="Rectangle 2" width="94.942" height="18.761" transform="translate(0 0)" fill="none"/>
    </clipPath>
  </defs>
  <g id="Group_3" data-name="Group 3" transform="translate(0 0)" clip-path="url(#clip-path)">
    <path id="Path_4" data-name="Path 4" d="M45.694,16.7v1.751H39.726V16.677h1.249l.139-.139V11.59c0-2.224-.638-2.836-2.221-2.836a8.541,8.541,0,0,0-2.136.334v7.449l.139.139h1.249v1.779H32.175V16.677h1.249l.139-.139V9.783L31.787,8.7V8.338L35.951,6.2l.361.195.333,1.64a7.518,7.518,0,0,1,4.3-1.668c1.97,0,3.358.973,3.358,3.252v6.921l.139.166Z" fill="#fff"/>
    <path id="Path_5" data-name="Path 5" d="M53.152,16.51V13.174c-2.165.195-3.053.807-3.081,2.057a1.393,1.393,0,0,0,1.583,1.529,6.014,6.014,0,0,0,1.5-.25m4.58.167v1.779h-4.58v-.973a6.281,6.281,0,0,1-3.442,1.278,2.539,2.539,0,0,1-2.747-2.752c0-2.084,1.388-3.7,6.19-4.2v-.5c0-1.89-.638-2.863-2.248-2.863a5.457,5.457,0,0,0-2.915,1.028l-.527-1.056a6.5,6.5,0,0,1,4.8-2.056c2.915,0,4.081,1.667,4.081,4.753v5.42l.139.139Z" fill="#fff"/>
    <path id="Path_6" data-name="Path 6" d="M72.713,16.7v1.751H66.745V16.677h1.249l.139-.139V11.59c0-2.224-.638-2.836-2.221-2.836a8.541,8.541,0,0,0-2.136.334v7.449l.139.139h1.249v1.779H59.2V16.677h1.249l.139-.139V9.783L58.806,8.7V8.338L62.97,6.2l.361.195.333,1.64a7.518,7.518,0,0,1,4.3-1.668c1.97,0,3.358.973,3.358,3.252v6.921l.139.166Z" fill="#fff"/>
    <path id="Path_7" data-name="Path 7" d="M73.359,12.841a6.109,6.109,0,0,1,6.3-6.476,9.467,9.467,0,0,1,3.247.611v4.475h-.361L80.437,8.616a2.267,2.267,0,0,0-1.527-.639c-1.416,0-2.165,1.334-2.165,3.808,0,3.474,1.8,5.03,3.719,5.03a4.536,4.536,0,0,0,2.415-.667l.528.973a6.419,6.419,0,0,1-4.358,1.612c-3.47,0-5.691-2.335-5.691-5.892" fill="#fff"/>
    <path id="Path_8" data-name="Path 8" d="M87.92,11.089h3.941c-.056-2.335-.749-3.113-1.887-3.113-1.222,0-1.944,1.084-2.054,3.113M94.3,16.148l.527.973a7.14,7.14,0,0,1-4.469,1.612,5.674,5.674,0,0,1-5.857-5.976c0-3.585,2.443-6.392,5.857-6.392a4.352,4.352,0,0,1,4.58,4.669,7.57,7.57,0,0,1-.139,1.5H87.92c.194,2.668,1.471,4.308,3.747,4.308a5.933,5.933,0,0,0,2.637-.695" fill="#fff"/>
  </g>
</svg>
