<svg xmlns="http://www.w3.org/2000/svg" xmlns:xlink="http://www.w3.org/1999/xlink" width="147" height="29" viewBox="0 0 147 29">
  <defs>
    <clipPath id="clip-path">
      <rect id="Rectangle_5" data-name="Rectangle 5" width="147" height="29" transform="translate(0 0)" fill="none"/>
    </clipPath>
  </defs>
  <g id="Group_36" data-name="Group 36" transform="translate(0 0)">
    <g id="Group_35" data-name="Group 35" clip-path="url(#clip-path)">
      <path id="Path_30" data-name="Path 30" d="M70.749,25.821v2.707H61.508v-2.75h1.934l.215-.214V17.916c0-3.437-.989-4.382-3.438-4.382a13.24,13.24,0,0,0-3.309.516V25.564l.214.214h1.935v2.75H49.818v-2.75h1.934l.215-.214V15.123l-2.751-1.676v-.559L55.663,9.58l.559.3.515,2.535c2.536-1.676,4.341-2.577,6.662-2.577,3.052,0,5.2,1.5,5.2,5.026v10.7l.215.257Z" fill="#fff"/>
      <path id="Path_31" data-name="Path 31" d="M82.294,25.52V20.364c-3.352.3-4.727,1.247-4.77,3.179a2.156,2.156,0,0,0,2.45,2.363,9.343,9.343,0,0,0,2.32-.387m7.092.258v2.75H82.294v-1.5A9.728,9.728,0,0,1,76.966,29a3.929,3.929,0,0,1-4.254-4.254c0-3.222,2.149-5.714,9.583-6.488v-.773c0-2.922-.988-4.425-3.481-4.425A8.46,8.46,0,0,0,74.3,14.65l-.816-1.633A10.078,10.078,0,0,1,80.92,9.838c4.512,0,6.318,2.578,6.318,7.347v8.377l.215.215Z" fill="#fff"/>
      <path id="Path_32" data-name="Path 32" d="M112.583,25.821v2.707h-9.241v-2.75h1.934l.215-.214V17.916c0-3.437-.989-4.382-3.438-4.382a13.245,13.245,0,0,0-3.309.516V25.564l.215.214h1.934v2.75H91.652v-2.75h1.935l.214-.214V15.123L91.05,13.447v-.559L97.5,9.58l.559.3.515,2.535c2.537-1.676,4.341-2.577,6.662-2.577,3.052,0,5.2,1.5,5.2,5.026v10.7l.215.257Z" fill="#fff"/>
      <path id="Path_33" data-name="Path 33" d="M113.582,19.849c0-5.628,3.739-10.01,9.756-10.01a14.68,14.68,0,0,1,5.029.945V17.7h-.559l-3.266-4.382a3.512,3.512,0,0,0-2.364-.988c-2.192,0-3.352,2.062-3.352,5.886,0,5.371,2.794,7.776,5.759,7.776a7.037,7.037,0,0,0,3.739-1.03l.817,1.5a9.949,9.949,0,0,1-6.748,2.492c-5.372,0-8.811-3.608-8.811-9.108" fill="#fff"/>
      <path id="Path_34" data-name="Path 34" d="M136.126,17.142h6.1c-.086-3.609-1.16-4.812-2.922-4.812-1.892,0-3.009,1.676-3.181,4.812m9.885,7.82.817,1.5a11.067,11.067,0,0,1-6.92,2.491c-5.114,0-9.069-3.608-9.069-9.237,0-5.542,3.783-9.881,9.069-9.881,4.384,0,7.092,2.965,7.092,7.217a11.692,11.692,0,0,1-.215,2.32H136.126c.3,4.125,2.278,6.66,5.8,6.66a9.206,9.206,0,0,0,4.083-1.074" fill="#fff"/>
    </g>
  </g>
</svg>
